<?xml version="1.0" encoding="UTF-8"?>
<svg id="Camada_2" data-name="Camada 2" xmlns="http://www.w3.org/2000/svg" xmlns:xlink="http://www.w3.org/1999/xlink" viewBox="0 0 800 703.01">
  <defs>
    <radialGradient id="Gradiente_sem_nome_260" data-name="Gradiente sem nome 260" cx="416.26" cy="32.32" fx="416.26" fy="32.32" r="471.03" gradientUnits="userSpaceOnUse">
      <stop offset="0" stop-color="#98085c"/>
      <stop offset=".19" stop-color="#960c60"/>
      <stop offset=".41" stop-color="#90186e"/>
      <stop offset=".58" stop-color="#8a287f"/>
      <stop offset=".71" stop-color="#70257a"/>
      <stop offset=".98" stop-color="#2f206f"/>
      <stop offset="1" stop-color="#2a206f"/>
    </radialGradient>
  </defs>
  <g id="Camada_1-2" data-name="Camada 1">
    <g id="AI2Love-logo">
      <path d="M743.62,362.1l-3.2,3.21c-2.73,2.98-5.7,5.83-8.66,8.69l-118.46,117.49-64.69-58.09c1.31-3.09,2.02-6.43,2.02-9.88s-.71-6.9-2.02-10c83.2-74.75,166.41-149.51,249.73-224.26,1.07,8.81,1.66,17.85,1.66,26.9,0,56.18-21.48,107.37-56.5,145.82l.12.12ZM601.9,502.8l-201.78,200.1-.12.12-.24-.12-225.64-223.78,62.31-55.95c3.09,1.31,6.41,2.14,9.97,2.14,4.99,0,9.61-1.55,13.53-4.05l115.73,103.92c-.47,2.02-.71,4.05-.71,6.19,0,13.81,11.16,25.12,25.04,25.12s25.04-11.31,25.04-25.12c0-2.14-.36-4.17-.83-6.07l89.02-79.99c3.68,2.02,7.83,3.21,12.34,3.21s8.78-1.19,12.34-3.21l63.98,57.49ZM162.85,467.8l-94.6-93.8c-2.97-2.86-5.93-5.71-8.78-8.69l-3.2-3.21.24-.12C21.36,323.53,0,272.35,0,216.16c0-9.05.59-18.09,1.66-26.9l222.31,199.74c-1.66,3.33-2.61,7.14-2.61,11.19,0,4.4,1.19,8.57,3.2,12.14l-61.72,55.47ZM4.87,170.69c7.48-35,23.38-66.9,45.46-93.32l325.46,292.23c-.59,2.02-.83,4.05-.83,6.19,0,13.81,11.16,25.12,25.04,25.12s25.04-11.31,25.04-25.12c0-2.14-.36-4.17-.83-6.19L749.67,77.37c22.08,26.43,37.98,58.33,45.46,93.32l-257.21,230.92c-3.56-2.02-7.83-3.21-12.34-3.21-13.77,0-25.04,11.19-25.04,25.12,0,3.45.71,6.78,2.14,9.88l-87.24,78.32c-4.27-3.45-9.61-5.48-15.43-5.48s-11.28,2.02-15.55,5.48l-114.54-102.96c.95-2.62,1.54-5.59,1.54-8.57,0-13.93-11.28-25.12-25.04-25.12-4.04,0-7.72.95-11.16,2.62L4.87,170.69ZM61.01,65.59c24.21-25,54.36-44.16,88.07-55.11l226.71,203.55c-.59,2.02-.83,4.05-.83,6.19,0,13.81,11.16,25.12,25.04,25.12s25.04-11.31,25.04-25.12c0-2.14-.36-4.17-.83-6.19l102.43-92.01c3.44,1.9,7.48,2.98,11.75,2.98,13.77,0,24.93-11.19,24.93-25.12s-11.16-25.12-24.93-25.12-25.04,11.31-25.04,25.12c0,3.81.83,7.5,2.37,10.71l-100.18,89.99c-4.27-3.45-9.73-5.48-15.55-5.48s-11.28,2.02-15.55,5.48L167.24,5.48c15.55-3.57,31.69-5.48,48.31-5.48,77.63,0,145.64,41.07,183.5,102.73.36.48.59.95.95,1.43.24-.48.59-.95.83-1.43C438.81,41.07,506.82,0,584.33,0c60.65,0,115.49,25.12,154.66,65.59l-323.44,290.56c-4.27-3.45-9.73-5.48-15.55-5.48s-11.28,2.02-15.55,5.48L61.01,65.59Z" style="fill: url(#Gradiente_sem_nome_260);"/>
    </g>
  </g>
</svg>